/* XPM */
static char * icon_xpm[] = {
"48 48 256 2",
"  	c None",
". 	c #030202",
"+ 	c #B6A486",
"@ 	c #817667",
"# 	c #584F3E",
"$ 	c #2A2215",
"% 	c #F6D286",
"& 	c #CCA36B",
"* 	c #574125",
"= 	c #BF8547",
"- 	c #845A2D",
"; 	c #36362A",
"> 	c #CDB696",
", 	c #9C9B98",
"' 	c #0E0E0C",
") 	c #7D6B50",
"! 	c #AE7A42",
"~ 	c #DAB67E",
"{ 	c #674F32",
"] 	c #A29274",
"^ 	c #EEEADE",
"/ 	c #E4B777",
"( 	c #161615",
"_ 	c #443724",
": 	c #3C2D1C",
"< 	c #9E7645",
"[ 	c #C4BAA8",
"} 	c #665A42",
"| 	c #E2C296",
"1 	c #2B2A27",
"2 	c #DAA360",
"3 	c #E0D2BA",
"4 	c #AA9474",
"5 	c #493F2D",
"6 	c #826846",
"7 	c #958E82",
"8 	c #A5A3A0",
"9 	c #C09258",
"0 	c #94816B",
"a 	c #7C5E39",
"b 	c #C6B28A",
"c 	c #21160D",
"d 	c #E6D6AF",
"e 	c #976E3F",
"f 	c #B08E61",
"g 	c #664626",
"h 	c #D8AA70",
"i 	c #F6C47D",
"j 	c #67645F",
"k 	c #463F32",
"l 	c #EECE8E",
"m 	c #605A4A",
"n 	c #332617",
"o 	c #EDB76F",
"p 	c #8E8679",
"q 	c #C4AE8E",
"r 	c #B28A5B",
"s 	c #E3AA65",
"t 	c #494741",
"u 	c #957F5F",
"v 	c #FEF6CA",
"w 	c #B89C70",
"x 	c #D2924E",
"y 	c #767672",
"z 	c #353229",
"A 	c #FEDB89",
"B 	c #59462C",
"C 	c #604F37",
"D 	c #060605",
"E 	c #D2B283",
"F 	c #85725A",
"G 	c #775630",
"H 	c #1E1A0E",
"I 	c #B6A68E",
"J 	c #665C4C",
"K 	c #FDCA7B",
"L 	c #D2BEA6",
"M 	c #2E2215",
"N 	c #AB855E",
"O 	c #C49B68",
"P 	c #604628",
"Q 	c #FAEAB0",
"R 	c #A6855A",
"S 	c #503A21",
"T 	c #342A1D",
"U 	c #F3B66A",
"V 	c #B08654",
"W 	c #766A5C",
"X 	c #90724E",
"Y 	c #B7B4B1",
"Z 	c #675640",
"` 	c #241A10",
" .	c #755E46",
"..	c #CCC4BA",
"+.	c #E1AF6F",
"@.	c #FCC273",
"#.	c #A67945",
"$.	c #D1AE7D",
"%.	c #16120B",
"&.	c #3E3A2E",
"*.	c #AA9A7E",
"=.	c #F3DB9F",
"-.	c #574A3A",
";.	c #8D7F69",
">.	c #9E927E",
",.	c #926232",
"'.	c #EEE6CA",
").	c #AFABA3",
"!.	c #0A0A07",
"~.	c #FEFAE6",
"{.	c #322E2C",
"].	c #7D6649",
"^.	c #4E4E48",
"/.	c #926E41",
"(.	c #8C775A",
"_.	c #433220",
":.	c #121211",
"<.	c #83623B",
"[.	c #A28A68",
"}.	c #927A60",
"|.	c #827C71",
"1.	c #6C5B41",
"2.	c #1A1A18",
"3.	c #F6BA6E",
"4.	c #EED2A2",
"5.	c #C6B49A",
"6.	c #605140",
"7.	c #CC965A",
"8.	c #222220",
"9.	c #C08D54",
"0.	c #AD7E46",
"a.	c #EAAE65",
"b.	c #7A6E5C",
"c.	c #725230",
"d.	c #BAA27E",
"e.	c #4A4236",
"f.	c #CCBEA6",
"g.	c #CCA978",
"h.	c #B2A28E",
"i.	c #4A3923",
"j.	c #241E14",
"k.	c #9E7E55",
"l.	c #D29652",
"m.	c #755A35",
"n.	c #A08E74",
"o.	c #504738",
"p.	c #8A6E4D",
"q.	c #52462E",
"r.	c #C2BAAE",
"s.	c #A2713B",
"t.	c #A29684",
"u.	c #C2AE86",
"v.	c #968A7E",
"w.	c #FDC676",
"x.	c #DEC69E",
"y.	c #AC8153",
"z.	c #272623",
"A.	c #5A564B",
"B.	c #503E28",
"C.	c #443E39",
"D.	c #FDCE7E",
"E.	c #6E512F",
"F.	c #1E1A12",
"G.	c #6C6256",
"H.	c #3D3224",
"I.	c #BA9462",
"J.	c #EBAA61",
"K.	c #423A32",
"L.	c #CC8E4A",
"M.	c #A49E98",
"N.	c #997951",
"O.	c #EDBE7E",
"P.	c #3D3A32",
"Q.	c #E7B172",
"R.	c #E4A45A",
"S.	c #CE9D63",
"T.	c #2E2E2D",
"U.	c #8E6232",
"V.	c #4F4942",
"W.	c #1E1A16",
"X.	c #74644D",
"Y.	c #5F5649",
"Z.	c #979490",
"`.	c #EADCC6",
" +	c #8B8275",
".+	c #8A7A66",
"++	c #98724E",
"@+	c #3E362B",
"#+	c #ACA59B",
"$+	c #DAC6A2",
"%+	c #7E7060",
"&+	c #FDD687",
"*+	c #44423E",
"=+	c #120E0A",
"-+	c #604A2D",
";+	c #746E64",
">+	c #66563A",
",+	c #F6DC98",
"'+	c #55514B",
")+	c #E9B26B",
"!+	c #8A6135",
"~+	c #E5CB9A",
"{+	c #97866E",
"]+	c #694A27",
"^+	c #342E23",
"/+	c #70665C",
"(+	c #C6A26E",
"_+	c #2A1E16",
":+	c #FEFEFE",
"<+	c #9B805F",
"[+	c #B38046",
"}+	c #8A6841",
"|+	c #0A0606",
"1+	c #7A624A",
"2+	c #D6B282",
"3+	c #9E9486",
"4+	c #1A1612",
"5+	c #BA8E56",
"6+	c #9E7A4F",
"7+	c #2E261A",
"8+	c #86827C",
"9+	c #51422A",
"0+	c #3C3A38",
"a+	c #6E6252",
"b+	c #745C3F",
"c+	c #F9BE70",
"d+	c #0E0A08",
"e+	c #B9AD9C",
"f+	c #C6AA82",
"g+	c #241E1B",
"h+	c #C5C0BC",
"i+	c #7D623F",
"j+	c #F0C688",
"k+	c #D49E5E",
"l+	c #CA9D64",
"m+	c #27221C",
"n+	c #E6BE86",
"o+	c #3E3E3C",
"p+	c #D2A467",
"q+	c #C69558",
"r+	c #A29C8A",
"s+	c #333230",
"t+	c #B19B7E",
"u+	c #6C5D49",
"v+	c #D8CAB6",
"w+	c #A99C8A",
"x+	c #1E1E1D",
"y+	c #373634",
"z+	c #777269",
"A+	c #605C55",
"B+	c #B2946B",
"C+	c #161212",
"D+	c #FCD284",
"E+	c #C3A47C",
"F+	c #D9BA8D",
"G+	c #F6E2A6",
"                                                                                                ",
"                                                                                                ",
"                                    Y j ;+z+z+z+;+W j j m ^.#+                                  ",
"                                Y r.n.W F (.}.}.}.(.%+u+# e.;+, Z.                              ",
"                              Y @ ;.[.B+d.g.$.E $.E+B+<+b.m -.P.^+8+                            ",
"                        h+7 e+5.q E+$.n+l =.,+G+=.~+E+[.F J -.e.y+*+V.o+M.                      ",
"                        e+h.f.L > t+E+2+% Q v ~.d > {+X.Y.q.P.; ^+1 x+( ^.,                     ",
"                      w+e+v+3 [ M.;.u w ~+Q :+:+[  +m e.^+1 z.8.8.F.2.:.' T.Y                   ",
"                    I f.v+..#+|.j '+Y.F u.3 ^ e+|.^.; 1 8.x+2.2.2.%.:.' ' ( T.,                 ",
"                  f.[ 3 f.M.z+A+t C.t Y.;.r+r+y ^.s+z.x+2.2.2.( :.:.=+' !.!.!.t ,               ",
"                I > `.`.#+z+'+*+0+y+0+*+A.A+m *+T.8.8.x+2.( ( ( ( :.:.:.' ' ' ' {.Y             ",
"            ..>.> d '.e+|.'+*+0+y+s+s+; 0+o+; T.z.8.x+2.2.2.( :.:.:.' ' :.4+W.j.z.C.8           ",
"          Y p .+q x.$+*.@ '+*+0+y+y+T.s+T.T.1 z.8.8.x+2.( ( ( :.:.:.4+m+^+5 -.6.-.B.W #+        ",
"          j '+W n.d.d.n.F u+V.*+y+s+s+1 1 1 z.8.8.x+x+2.2.( :.:.:.W.7+K.1.(.[.u (.i+P Z         ",
"          j V.'+u+%+(.<+u .+X.'+C.y+s+T.1 z.z.z.8.x+x+2.( ( ( ( 4+T * X w F+[ *.(.1+E.].        ",
"        Z.'+*+t V.'+Y.X.F <+k.F 1.t y+T.1 1 1 1 1 z.x+2.2.( 4+g+H.C X q+$.> t.b.# B -+m.v.      ",
"      8 t *+o+o+0+C.*+V.u+(.f f k.X.-.y+T.T.y+0+; 1 8.2.2.2.m+_.E.6+l++.g.n.A+P.8.T B.]+S t.    ",
"      #+'+t *+0+0+y+0+o+o.u+R S.2+I.X Z e.e.V.'+e.s+1 z.z.T B. .V k+a.l+< # 1 ( =+c _.g g h.    ",
"    Y 0  .6.t 0+0+y+s+s+K.-.F O O./ (+R p.) ].G.V.z H.@+e.6.}+r s o )+5+m.T %.' =+_+* - - X 8   ",
"    W ].++ .o.y+s+s+s+s+s+o+Z r O.D+j+~ O f u u+e.T H.q.1.N.l+)+i @.)+0.-+j.' =+` : c.s.s.]+B   ",
"    @ X N }+6.0+s+T.T.T.{.s+-.<+Q.D+&+% O.& k.C z 8.z.9+i+9.)+@.w.@.a.[+g ` =+H _.G ! x = - Z   ",
"    ;.6+9.++Z @+T.s+T.{.{.@+o.6++.% A A K & ++B.7+W.j.H.m.9 )+w.K @.a.0.P ` =+M * < l.R.L.,.b+  ",
"     +N 7.y.b+K.{.T.s+s+y+e.Z R / D+A A K & /.i.m+( 4+7+-.V +.w.K @.a.[+g ` =+n { [+k+J.L.,. .  ",
"    0 N 2 9.<.K.{.s+y+C.V.Z }.(+i &+A &+K k+e S j.C+:.j.S < 2 w.K @.a.! g ` =+` _.}+9.R.L.,.b+  ",
"    ;.r s k+++-.H.T.{.y+o.Z k.p+K &+A &+K S.e i.m+:.:.F._ /.S.c+K @.a.0.g c d+=+` * e 9.= !+b+  ",
"    }.N Q.Q.r b+K.T 1 ^+K.6.6+g.w.D+&+&+w.k+e i.j.:.' 2.: }+7.c+w.c+a.! g ` |+|+d+_+]+#.! - 1.  ",
"    F N Q.i h k.# @+{.^+K.B p.l+i D+&+D+w.S.e i._+=+=+4+T a 9 3.w.c+a.! P c |+D d+c * !+,.E.Z   ",
"    ;+N.h i O.O 6 -.@+@+e.Z 6+& w.D+D+D+w.k+s.S j.:.' 4+: a 9 3.@.@.J.! g c |+. |+%._.c.- P C   ",
"    a+p.p+i i / r ) -.5 V. .V h w.D+D+D.w.R.! * _+=+' c _.!+q+3.@.@.a.! g ` |+. |+%.: ]+E.i.o.  ",
"    A+ .5+O.D+l F+4 W e.K.-+X l+c+K D.D.K a.= g n %.( n * #.k+c+w.c+J.! P c d+. D =+n * * : K.  ",
"    #+0 k.Q.D.A 4.+ W C.T H.E.y.+.w.D.D.K U l.a i.M : -+/.l.)+c+@.c+a.! g %.|+. . =+M i.i.a+M.  ",
"      e+6 & j+=.v+w+j s+8.j._ }+S.c+K K D.c+R.< E.9+>+< 7.)+3.@.w.c+J.! P c |+. D =+M : : t.    ",
"      M.{ N & $.n.G.y+x+2.` @+}+S.c+K K K w.)+q+0.N.5+l+s U c+@.@.c+J.! g c D . . d+j.: M Z.    ",
"        t.k.y.V 1+e.m+( ( $ B.}+q++.o c+@.@.c++.h g.E & l+2 a.3.@.3.J.! P c |+. D d+c _.|.      ",
"          F 6 }+{ @+j.( ( 7+q.<.[+9 7.p+s o c+i n+| > 4 N.0.q+R.U U R.[+]+` |+. . !.%.k         ",
"          6.-+}+i+P T c H j.T 5 B C m.i+< 5+h n+F++ |.Y.5 -+- #.L.k+R.= G n =+. . . D H.        ",
"          #+b.]+i+m.B T ` H H j.$ 7+T _ * m.N.B+{+/+*+1 ` 7+_ B m.e 0.! !+* n %.|+. *+Z.        ",
"            ).>+a <.a B.n %.=+' !.d+=+%.H ^+* X.-.{.4+d+!.!.=+` n S E.U.e !+* n C+z.Z.          ",
"              h+1.E.a G B.$ %.d+!.!.D |+d+:.F.7+j.:.!.D D D D |+' ` T P /.[.(.B K.Y             ",
"                ).F { G ]+_ $ 4+' |+|+D |+!.d+=+d+D . . . . . D d+%.^+Z u B+;.p 8               ",
"                  #+6.-+]+P _.7+H :.d+D |+D D D D D . . D D !.d+c n 9+F n.w+v...                ",
"                    h+-.S C -+B.H.$ H %.=+=+!.!.|+|+!.d+' %.` T 5 u+.+v.8+8+                    ",
"                      #+G.i.* B * i._ ^+n 7+j.j.j.j.j.M : i.# X.(.;.0 %+Z.h+                    ",
"                        M.o.} C B B B * B.i.i.H.H._.5 q.>+) }.n.t.w+, z+Y                       ",
"                              8+7+: i.9+* B P -+C { 1.].X u 0 ;.z+).                            ",
"                                7 3+J T H._._ _ 5 q.# 6.>+>+7 h+Y                               ",
"                                    , &.C.t o.o.V.# A.A.A.# #+                                  ",
"                                                                                                "};
